<svg version="1.2" xmlns="http://www.w3.org/2000/svg" viewBox="0 0 1023 301" width="1023" height="301">
	<style>
		tspan { white-space:pre } 
		.s0 { fill: #ffffff } 
		.s1 { fill: #39e079 } 
		.t2 { font-size: 126px;fill: #39e079;font-weight: 600;font-family: "IBMPlexSans-SemiBold", "IBM Plex Sans" } 
	</style>
	<path class="s0" d="m387.18 93h-11.27q-1-4.86-3.5-8.55-2.46-3.68-6-6.18-3.5-2.54-7.77-3.82-4.28-1.27-8.91-1.27-8.46 0-15.32 4.27-6.82 4.28-10.86 12.6-4 8.31-4 20.41 0 12.09 4 20.4 4.04 8.32 10.86 12.6 6.86 4.27 15.32 4.27 4.63 0 8.91-1.27 4.27-1.28 7.77-3.78 3.54-2.54 6-6.22 2.5-3.73 3.5-8.55h11.27q-1.27 7.14-4.63 12.77-3.37 5.64-8.37 9.59-5 3.91-11.23 5.96-6.18 2.04-13.22 2.04-11.91 0-21.18-5.81-9.28-5.82-14.6-16.55-5.31-10.73-5.31-25.45 0-14.73 5.31-25.46 5.32-10.73 14.6-16.55 9.27-5.81 21.18-5.81 7.04 0 13.22 2.04 6.23 2.05 11.23 6 5 3.91 8.37 9.55 3.36 5.59 4.63 12.77zm45.13 65.46q-9.46-0.01-16.59-4.5-7.09-4.51-11.1-12.6-3.95-8.09-3.95-18.9 0-10.91 3.95-19.05 4.01-8.14 11.1-12.64 7.13-4.5 16.59-4.5 9.45 0 16.54 4.5 7.14 4.5 11.09 12.64 4 8.14 4 19.05 0 10.81-4 18.9-3.95 8.09-11.09 12.6-7.09 4.49-16.54 4.5zm0-9.64q7.18 0 11.81-3.68 4.64-3.69 6.87-9.68 2.23-6.01 2.23-13 0-7.01-2.23-13.05-2.23-6.05-6.87-9.77-4.63-3.73-11.81-3.73-7.18 0-11.82 3.73-4.64 3.72-6.87 9.77-2.22 6.04-2.22 13.05 0 6.99 2.22 13 2.23 5.99 6.87 9.68 4.64 3.68 11.82 3.68zm74.37 9.64q-8.73 0-15.41-4.42-6.68-4.45-10.45-12.54-3.77-8.14-3.77-19.23 0-11 3.77-19.09 3.77-8.09 10.5-12.5 6.73-4.41 15.54-4.41 6.82 0 10.78 2.28 4 2.22 6.09 5.09 2.13 2.81 3.31 4.63h0.92v-34.36h10.72v93.09h-10.36v-10.73h-1.28q-1.18 1.91-3.36 4.82-2.18 2.86-6.22 5.14-4.05 2.22-10.78 2.23zm1.46-9.64q6.45 0 10.9-3.36 4.46-3.41 6.78-9.41 2.32-6.05 2.32-13.96 0-7.82-2.28-13.68-2.27-5.91-6.72-9.18-4.46-3.32-11-3.32-6.82 0-11.37 3.5-4.5 3.45-6.77 9.41-2.23 5.91-2.23 13.27 0 7.46 2.27 13.55 2.32 6.04 6.82 9.63 4.55 3.55 11.28 3.55zm80.95 9.64q-10.09-0.01-17.41-4.46-7.27-4.5-11.22-12.54-3.92-8.1-3.92-18.82 0-10.73 3.92-18.91 3.95-8.23 11-12.82 7.09-4.64 16.54-4.64 5.45 0 10.77 1.82 5.32 1.82 9.69 5.91 4.36 4.05 6.95 10.73 2.59 6.68 2.59 16.45v4.55h-53.82v-9.27h42.91q0-5.91-2.36-10.55-2.32-4.64-6.64-7.32-4.27-2.68-10.09-2.68-6.41 0-11.09 3.18-4.64 3.14-7.14 8.18-2.5 5.05-2.5 10.82v6.18q0 7.91 2.73 13.41 2.77 5.46 7.68 8.32 4.91 2.82 11.41 2.82 4.23 0 7.64-1.18 3.45-1.23 5.95-3.64 2.5-2.45 3.86-6.09l10.37 2.91q-1.64 5.27-5.5 9.27-3.86 3.96-9.55 6.18-5.68 2.18-12.77 2.19z"/>
	<path class="s0" d="m343.2 202h-2.64q-0.24-1.14-0.82-2-0.58-0.87-1.41-1.45-0.82-0.6-1.82-0.9-1-0.29-2.09-0.3-1.98 0-3.59 1.01-1.6 1-2.55 2.95-0.93 1.95-0.93 4.78 0 2.83 0.93 4.78 0.95 1.95 2.55 2.95 1.61 1.01 3.59 1.01 1.09 0 2.09-0.3 1-0.3 1.82-0.89 0.83-0.59 1.41-1.45 0.58-0.88 0.82-2.01h2.64q-0.3 1.67-1.09 3-0.79 1.32-1.96 2.24-1.17 0.92-2.63 1.4-1.45 0.48-3.1 0.48-2.79 0-4.96-1.36-2.18-1.37-3.42-3.88-1.25-2.52-1.25-5.97 0-3.45 1.25-5.97 1.24-2.51 3.42-3.87 2.17-1.37 4.96-1.37 1.65 0 3.1 0.48 1.46 0.48 2.63 1.41 1.17 0.92 1.96 2.24 0.79 1.31 1.09 2.99zm10.57 15.34q-2.21 0-3.88-1.05-1.67-1.06-2.6-2.95-0.93-1.9-0.93-4.44 0-2.55 0.93-4.46 0.93-1.91 2.6-2.96 1.67-1.06 3.88-1.06 2.22 0 3.88 1.06 1.68 1.05 2.6 2.96 0.94 1.91 0.94 4.46 0 2.54-0.94 4.44-0.92 1.89-2.6 2.95-1.66 1.05-3.88 1.05zm0-2.26q1.69 0 2.78-0.86 1.08-0.86 1.6-2.27 0.53-1.41 0.53-3.05 0-1.64-0.53-3.05-0.52-1.42-1.6-2.29-1.09-0.88-2.78-0.88-1.68 0-2.76 0.88-1.09 0.87-1.61 2.29-0.53 1.41-0.53 3.05 0 1.64 0.53 3.05 0.52 1.41 1.61 2.27 1.08 0.86 2.76 0.86zm17.44 2.26q-2.05 0-3.61-1.03-1.57-1.05-2.46-2.94-0.88-1.91-0.88-4.51 0-2.58 0.88-4.47 0.89-1.9 2.47-2.93 1.57-1.04 3.64-1.04 1.6 0 2.52 0.54 0.94 0.52 1.43 1.19 0.5 0.66 0.78 1.09h0.21v-8.06h2.52v21.82h-2.43v-2.51h-0.3q-0.28 0.44-0.79 1.13-0.51 0.67-1.46 1.2-0.95 0.52-2.52 0.52zm0.34-2.26q1.51 0 2.55-0.79 1.05-0.8 1.59-2.2 0.54-1.42 0.55-3.27 0-1.83-0.54-3.21c-0.35-0.92 0.12-1.64-1.57-2.15q-1.05-0.78-2.58-0.78-1.6 0-2.67 0.82-1.05 0.81-1.58 2.21-0.53 1.38-0.53 3.11 0 1.75 0.54 3.17 0.54 1.42 1.6 2.26 1.06 0.83 2.64 0.83zm18.97 2.26q-2.36 0-4.08-1.04-1.7-1.06-2.63-2.94-0.92-1.9-0.92-4.41 0-2.52 0.92-4.44 0.93-1.92 2.58-3 1.66-1.09 3.88-1.09 1.27 0 2.52 0.43 1.25 0.43 2.27 1.38 1.02 0.95 1.63 2.52 0.61 1.56 0.61 3.85v1.07h-12.62v-2.17h10.06q0-1.39-0.55-2.47-0.55-1.09-1.56-1.72-1-0.63-2.36-0.63-1.51 0-2.6 0.75-1.09 0.73-1.68 1.91-0.58 1.19-0.58 2.54v1.45q0 1.85 0.64 3.14 0.65 1.28 1.8 1.95 1.15 0.66 2.67 0.66 0.99 0 1.79-0.27 0.81-0.29 1.4-0.86 0.58-0.57 0.9-1.42l2.43 0.68q-0.38 1.23-1.29 2.17-0.9 0.93-2.24 1.45-1.33 0.51-2.99 0.51zm14.35-3.32l-0.17 1.15q-0.18 1.21-0.55 2.6-0.37 1.38-0.76 2.61-0.39 1.22-0.65 1.95h-1.92q0.14-0.69 0.37-1.8 0.22-1.12 0.44-2.51 0.24-1.37 0.39-2.81l0.12-1.19zm31-12.02h-2.64q-0.24-1.14-0.82-2-0.58-0.87-1.41-1.45-0.82-0.6-1.82-0.9-1-0.29-2.09-0.3-1.98 0-3.59 1.01-1.6 1-2.55 2.95-0.93 1.95-0.93 4.78 0 2.83 0.93 4.78 0.95 1.95 2.55 2.95 1.61 1.01 3.59 1.01 1.09 0 2.09-0.3 1-0.3 1.82-0.89 0.83-0.59 1.41-1.45 0.58-0.88 0.82-2.01h2.64q-0.3 1.67-1.09 3-0.79 1.32-1.96 2.24-1.17 0.92-2.63 1.4-1.45 0.48-3.1 0.48-2.79 0-4.96-1.37-2.18-1.36-3.42-3.87-1.25-2.52-1.25-5.97 0-3.45 1.25-5.97 1.24-2.51 3.42-3.87 2.17-1.37 4.96-1.37 1.65 0 3.1 0.48 1.46 0.48 2.63 1.41 1.17 0.92 1.96 2.24 0.79 1.31 1.09 2.99zm6.44 5.16v9.84h-2.51v-21.82h2.51v8.01h0.21q0.58-1.26 1.73-2.01 1.16-0.76 3.09-0.76 1.67 0 2.93 0.67 1.26 0.67 1.95 2.04 0.7 1.36 0.7 3.47v10.4h-2.51v-10.23q0-1.95-1.01-3.01-1.01-1.08-2.78-1.08-1.24 0-2.22 0.52-0.97 0.53-1.53 1.53-0.56 1-0.56 2.43zm20.03 10.22q-1.56 0-2.83-0.58-1.26-0.6-2.01-1.72-0.75-1.13-0.75-2.73 0-1.4 0.56-2.28 0.55-0.88 1.48-1.38 0.93-0.5 2.04-0.75 1.13-0.25 2.27-0.4 1.5-0.19 2.42-0.29 0.94-0.1 1.37-0.35 0.43-0.24 0.43-0.85v-0.09q0-1.57-0.86-2.45-0.85-0.87-2.59-0.87-1.8 0-2.82 0.79-1.03 0.79-1.44 1.68l-2.39-0.85q0.64-1.49 1.71-2.32 1.07-0.85 2.34-1.18 1.28-0.34 2.52-0.34 0.78 0 1.81 0.2 1.03 0.18 1.99 0.75 0.97 0.58 1.61 1.74 0.64 1.16 0.64 3.11v10.78h-2.52v-2.22h-0.13q-0.25 0.54-0.85 1.14-0.6 0.61-1.58 1.04-1 0.42-2.42 0.42zm0.38-2.26q1.49 0.01 2.51-0.58 1.04-0.59 1.56-1.51 0.53-0.93 0.53-1.95v-2.3q-0.16 0.19-0.7 0.35-0.53 0.15-1.24 0.26-0.69 0.11-1.35 0.2-0.65 0.07-1.05 0.12-0.98 0.13-1.84 0.42-0.84 0.28-1.36 0.84-0.51 0.55-0.51 1.51 0 1.31 0.97 1.98 0.98 0.67 2.48 0.66zm18.82-14.48v2.13h-8.48v-2.13zm-6.01-3.92h2.52v15.59q0 1.07 0.31 1.6 0.32 0.52 0.81 0.7 0.5 0.17 1.05 0.17 0.42 0 0.68-0.04 0.27-0.05 0.43-0.08l0.51 2.25q-0.25 0.1-0.71 0.2-0.46 0.1-1.16 0.1-1.07 0-2.09-0.46-1.02-0.45-1.69-1.39-0.66-0.94-0.66-2.37zm23.05 20.67q-1.56 0-2.83-0.58-1.26-0.6-2.01-1.72-0.75-1.13-0.75-2.73 0-1.4 0.56-2.28 0.55-0.88 1.48-1.38 0.93-0.5 2.04-0.75 1.13-0.25 2.27-0.4 1.5-0.19 2.42-0.29 0.94-0.11 1.37-0.35 0.43-0.25 0.43-0.85v-0.09q0-1.58-0.86-2.45-0.85-0.87-2.59-0.87-1.8 0-2.82 0.79-1.02 0.78-1.44 1.68l-2.39-0.85q0.64-1.5 1.71-2.33 1.07-0.84 2.34-1.17 1.28-0.34 2.52-0.34 0.78 0 1.81 0.19 1.03 0.18 1.99 0.76 0.97 0.57 1.61 1.74 0.64 1.16 0.64 3.11v10.78h-2.52v-2.22h-0.13q-0.25 0.53-0.85 1.14-0.59 0.61-1.58 1.03-1 0.43-2.42 0.43zm0.38-2.26q1.49 0 2.51-0.58 1.04-0.59 1.56-1.52 0.53-0.92 0.53-1.95v-2.3q-0.16 0.2-0.7 0.35-0.53 0.15-1.24 0.27-0.69 0.11-1.35 0.19-0.65 0.08-1.05 0.13-0.98 0.13-1.84 0.42-0.84 0.27-1.36 0.84-0.51 0.55-0.51 1.51 0 1.31 0.97 1.98 0.98 0.66 2.48 0.66zm14.22-7.97v9.85h-2.51v-16.37h2.42v2.56h0.22q0.57-1.25 1.75-2 1.17-0.77 3.02-0.77 1.66 0 2.91 0.68 1.25 0.67 1.94 2.05 0.69 1.36 0.69 3.45v10.4h-2.51v-10.23q0-1.93-1.01-3-1-1.09-2.74-1.09-1.21 0-2.16 0.52-0.93 0.52-1.48 1.52-0.54 1.01-0.54 2.43zm21.21 10.19q-2.04 0-3.61-1.03-1.56-1.05-2.45-2.95-0.88-1.9-0.88-4.5 0-2.58 0.88-4.48 0.89-1.89 2.46-2.93 1.58-1.03 3.65-1.03 1.59 0 2.52 0.53 0.94 0.53 1.43 1.2 0.5 0.66 0.78 1.08h0.21v-8.05h2.51v21.82h-2.43v-2.52h-0.29q-0.28 0.45-0.79 1.13-0.51 0.67-1.46 1.21-0.95 0.52-2.53 0.52zm0.34-2.26q1.52 0 2.56-0.79 1.05-0.8 1.59-2.2 0.54-1.42 0.54-3.27 0-1.84-0.53-3.21-0.53-1.39-1.58-2.15-1.04-0.78-2.58-0.78-1.59 0-2.66 0.82-1.05 0.81-1.59 2.2-0.52 1.39-0.52 3.12 0 1.74 0.53 3.17 0.55 1.42 1.6 2.26 1.07 0.83 2.64 0.83zm38.45-13.08h-2.64q-0.23-1.14-0.82-2-0.58-0.87-1.41-1.45-0.82-0.6-1.82-0.9-1-0.3-2.09-0.3-1.98 0-3.59 1-1.59 1.01-2.54 2.96-0.94 1.94-0.94 4.78 0 2.83 0.94 4.78 0.95 1.95 2.54 2.95 1.61 1 3.59 1 1.09 0 2.09-0.29 1-0.3 1.82-0.89 0.83-0.59 1.41-1.46 0.59-0.87 0.82-2h2.64q-0.3 1.67-1.08 2.99-0.79 1.32-1.96 2.25-1.18 0.92-2.64 1.4-1.44 0.48-3.1 0.48-2.79 0-4.96-1.37-2.17-1.36-3.42-3.88-1.25-2.51-1.25-5.96 0-3.45 1.25-5.97 1.25-2.51 3.42-3.87 2.17-1.37 4.96-1.37 1.66 0 3.1 0.48 1.46 0.48 2.64 1.41 1.17 0.91 1.96 2.23 0.78 1.31 1.08 3zm10.58 15.34q-2.22 0-3.89-1.06-1.66-1.05-2.6-2.95-0.93-1.89-0.93-4.43 0-2.56 0.93-4.46 0.94-1.91 2.6-2.96 1.67-1.06 3.89-1.06 2.21 0 3.88 1.06 1.67 1.05 2.6 2.96 0.93 1.9 0.93 4.46 0 2.54-0.93 4.43-0.93 1.9-2.6 2.95-1.67 1.06-3.88 1.06zm0-2.26q1.68 0 2.77-0.86 1.09-0.87 1.61-2.27 0.52-1.41 0.52-3.05 0-1.64-0.52-3.06-0.52-1.41-1.61-2.29-1.09-0.87-2.77-0.87-1.69 0-2.77 0.87-1.09 0.88-1.61 2.29-0.52 1.42-0.52 3.06 0 1.64 0.52 3.05 0.52 1.4 1.61 2.27 1.08 0.86 2.77 0.86zm13.77-19.9v21.82h-2.52v-21.82zm7.12 0v21.82h-2.51v-21.82zm9.42 22.2q-1.56 0-2.83-0.58-1.27-0.6-2.01-1.72-0.75-1.13-0.75-2.73 0-1.4 0.56-2.28 0.55-0.88 1.48-1.38 0.92-0.5 2.04-0.75 1.13-0.25 2.27-0.4 1.49-0.19 2.42-0.29 0.94-0.11 1.36-0.35 0.44-0.25 0.44-0.85v-0.09q0-1.58-0.86-2.45-0.85-0.87-2.59-0.87-1.8 0-2.82 0.79-1.03 0.78-1.44 1.68l-2.39-0.85q0.64-1.5 1.71-2.33 1.07-0.84 2.34-1.17 1.28-0.34 2.51-0.34 0.79 0 1.82 0.19 1.03 0.18 1.99 0.76 0.97 0.57 1.61 1.74 0.64 1.16 0.64 3.11v10.78h-2.52v-2.22h-0.13q-0.25 0.53-0.85 1.14-0.59 0.61-1.59 1.03-0.99 0.43-2.41 0.43zm0.38-2.26q1.49 0 2.51-0.58 1.04-0.59 1.56-1.52 0.53-0.92 0.53-1.95v-2.3q-0.16 0.2-0.7 0.35-0.53 0.15-1.24 0.27-0.69 0.11-1.35 0.19-0.65 0.08-1.06 0.13-0.97 0.13-1.83 0.42-0.84 0.27-1.36 0.84-0.51 0.55-0.51 1.51 0 1.31 0.97 1.98 0.98 0.66 2.48 0.66zm12.05 1.88v-21.82h2.51v8.05h0.21q0.28-0.42 0.77-1.08 0.5-0.67 1.43-1.2 0.94-0.53 2.53-0.53 2.07 0 3.65 1.03 1.57 1.04 2.46 2.93 0.88 1.9 0.88 4.48 0 2.6-0.88 4.5-0.89 1.9-2.45 2.95-1.57 1.03-3.61 1.03-1.58 0-2.53-0.52-0.95-0.54-1.46-1.21-0.51-0.68-0.79-1.13h-0.29v2.52zm2.47-8.18q0 1.85 0.54 3.27 0.54 1.4 1.59 2.2 1.04 0.79 2.55 0.79 1.58 0 2.64-0.83 1.06-0.84 1.59-2.26 0.55-1.43 0.55-3.17 0-1.73-0.54-3.12-0.52-1.39-1.58-2.2-1.06-0.82-2.66-0.82-1.53 0-2.57 0.78-1.05 0.76-1.58 2.15-0.53 1.37-0.53 3.21zm22.46 8.52q-2.21 0-3.88-1.06-1.67-1.05-2.6-2.95-0.93-1.89-0.93-4.43 0-2.56 0.93-4.46 0.93-1.91 2.6-2.96 1.67-1.06 3.88-1.06 2.22 0 3.88 1.06 1.67 1.05 2.6 2.96 0.94 1.9 0.94 4.46 0 2.54-0.94 4.43-0.93 1.9-2.6 2.95-1.66 1.06-3.88 1.06zm0-2.26q1.69 0 2.77-0.86 1.09-0.87 1.61-2.27 0.53-1.41 0.53-3.05 0-1.64-0.53-3.06-0.52-1.41-1.61-2.29-1.08-0.87-2.77-0.87-1.68 0-2.77 0.87-1.08 0.88-1.6 2.29-0.53 1.42-0.53 3.06 0 1.64 0.53 3.05 0.52 1.4 1.6 2.27 1.09 0.86 2.77 0.86zm11.26 1.92v-16.37h2.43v2.48h0.17q0.44-1.22 1.62-1.98 1.17-0.75 2.64-0.75 0.27 0 0.69 0.01 0.42 0.01 0.63 0.03v2.56q-0.13-0.03-0.59-0.1-0.44-0.07-0.94-0.07-1.2 0-2.14 0.5-0.92 0.49-1.47 1.36-0.53 0.86-0.53 1.97v10.36zm15.98 0.38q-1.56 0-2.82-0.58-1.27-0.6-2.02-1.72-0.74-1.13-0.74-2.73 0-1.4 0.55-2.28 0.55-0.88 1.48-1.38 0.93-0.5 2.05-0.75 1.13-0.25 2.27-0.4 1.49-0.19 2.41-0.29 0.94-0.11 1.37-0.35 0.43-0.25 0.43-0.85v-0.09q0-1.58-0.86-2.45-0.85-0.87-2.59-0.87-1.8 0-2.82 0.79-1.02 0.78-1.44 1.68l-2.38-0.85q0.63-1.5 1.7-2.33 1.08-0.84 2.34-1.17 1.28-0.34 2.52-0.34 0.79 0 1.81 0.19 1.03 0.18 1.99 0.76 0.97 0.57 1.61 1.74 0.64 1.16 0.64 3.11v10.78h-2.52v-2.22h-0.12q-0.26 0.53-0.86 1.14-0.59 0.61-1.58 1.03-0.99 0.43-2.42 0.43zm0.38-2.26q1.49 0 2.52-0.58 1.03-0.59 1.55-1.52 0.53-0.92 0.53-1.95v-2.3q-0.16 0.2-0.7 0.35-0.53 0.15-1.23 0.27-0.7 0.11-1.36 0.19-0.65 0.08-1.05 0.13-0.98 0.13-1.83 0.42-0.85 0.27-1.37 0.84-0.51 0.55-0.51 1.51 0 1.31 0.97 1.98 0.98 0.66 2.48 0.66zm18.82-14.49v2.13h-8.48v-2.13zm-6.01-3.92h2.52v15.6q0 1.07 0.31 1.6 0.32 0.52 0.81 0.7 0.5 0.17 1.05 0.17 0.42 0 0.68-0.04 0.27-0.05 0.43-0.09l0.51 2.26q-0.25 0.1-0.71 0.19-0.46 0.11-1.16 0.11-1.07 0-2.09-0.46-1.01-0.46-1.68-1.39-0.67-0.94-0.67-2.37zm16.48 20.63q-2.36 0-4.08-1.05-1.7-1.05-2.63-2.94-0.92-1.89-0.92-4.41 0-2.51 0.92-4.43 0.93-1.93 2.58-3 1.66-1.09 3.88-1.09 1.27 0 2.52 0.42 1.25 0.43 2.27 1.39 1.02 0.95 1.63 2.51 0.61 1.57 0.61 3.86v1.07h-12.62v-2.18h10.06q0-1.38-0.55-2.47-0.55-1.09-1.56-1.71-1-0.63-2.36-0.63-1.51 0-2.6 0.74-1.09 0.74-1.68 1.92-0.58 1.18-0.58 2.54v1.45q0 1.85 0.64 3.14 0.65 1.28 1.8 1.95 1.15 0.66 2.67 0.66 0.99 0 1.79-0.28 0.81-0.29 1.4-0.85 0.58-0.58 0.9-1.43l2.43 0.68q-0.38 1.24-1.29 2.18-0.9 0.92-2.24 1.45-1.33 0.51-2.99 0.51zm12.43-0.17q-0.78 0-1.35-0.57-0.56-0.56-0.56-1.35 0-0.79 0.56-1.35 0.57-0.57 1.35-0.57 0.79 0 1.36 0.57 0.56 0.56 0.56 1.35 0 0.52-0.26 0.96-0.26 0.43-0.7 0.7-0.42 0.26-0.96 0.26zm17.85-21.99v21.82h-2.64v-21.82zm12.07 5.45v2.13h-8.48v-2.13zm-6-3.92h2.51v15.6q0 1.06 0.31 1.6 0.32 0.52 0.81 0.7 0.5 0.17 1.05 0.17 0.42 0 0.69-0.04 0.26-0.06 0.42-0.09l0.51 2.26q-0.25 0.1-0.71 0.19-0.46 0.11-1.16 0.11-1.07 0-2.09-0.46-1.01-0.46-1.68-1.4-0.66-0.93-0.66-2.36zm11.96-1.53v7.5h-2.34v-7.5zm16.06 9.11l-2.25 0.64q-0.22-0.56-0.63-1.09-0.41-0.55-1.11-0.9-0.7-0.35-1.8-0.35-1.5 0-2.5 0.69-0.99 0.68-0.99 1.74 0 0.94 0.68 1.48 0.68 0.54 2.13 0.91l2.43 0.59q2.19 0.54 3.27 1.63 1.07 1.09 1.07 2.8 0 1.41-0.81 2.52-0.8 1.11-2.23 1.75-1.44 0.63-3.35 0.63-2.5 0.01-4.14-1.08-1.64-1.09-2.08-3.18l2.39-0.59q0.34 1.32 1.28 1.98 0.96 0.66 2.51 0.66 1.76 0 2.79-0.75 1.04-0.75 1.04-1.81 0-0.85-0.59-1.43-0.6-0.58-1.84-0.87l-2.72-0.64q-2.25-0.53-3.31-1.65-1.04-1.13-1.04-2.82 0-1.39 0.78-2.45 0.79-1.07 2.14-1.68 1.36-0.6 3.09-0.6 2.43 0 3.81 1.06 1.4 1.07 1.98 2.81zm13.76 12.7h-2.77l8.01-21.81h2.73l8.01 21.81h-2.77l-6.52-18.36h-0.17zm1.02-8.53h11.17v2.35h-11.17zm20.53-13.3v21.82h-2.51v-21.82zm7.12 0v21.82h-2.52v-21.82zm13.04 21.82v-16.36h2.52v16.36zm1.28-19.09q-0.74 0-1.27-0.5-0.52-0.5-0.52-1.2 0-0.71 0.52-1.21 0.53-0.5 1.27-0.5 0.73 0 1.25 0.5 0.54 0.5 0.54 1.21 0 0.7-0.54 1.2-0.52 0.5-1.25 0.5zm8.35 9.25v9.84h-2.51v-16.36h2.43v2.55h0.21q0.57-1.24 1.75-2 1.17-0.76 3.02-0.77 1.66 0.01 2.91 0.69 1.25 0.67 1.94 2.04 0.69 1.37 0.69 3.45v10.4h-2.51v-10.23q0-1.92-1-3-1.01-1.09-2.75-1.09-1.21 0-2.15 0.53-0.94 0.52-1.48 1.52-0.55 1-0.55 2.43zm35.75-6.52q-0.2-1.62-1.56-2.52-1.36-0.89-3.34-0.89-1.45 0-2.54 0.47-1.08 0.47-1.68 1.29-0.6 0.82-0.6 1.86 0 0.88 0.42 1.5 0.42 0.62 1.08 1.04 0.66 0.4 1.39 0.67 0.72 0.25 1.33 0.41l2.22 0.6q0.85 0.22 1.89 0.62 1.06 0.39 2.02 1.07 0.96 0.68 1.59 1.73 0.63 1.05 0.63 2.59 0 1.77-0.93 3.19-0.91 1.43-2.68 2.27-1.76 0.85-4.27 0.85-2.35 0-4.06-0.76-1.71-0.76-2.69-2.11-0.97-1.35-1.09-3.14h2.72q0.11 1.23 0.84 2.04 0.73 0.8 1.85 1.2 1.13 0.38 2.43 0.38 1.51 0 2.71-0.49 1.21-0.5 1.91-1.39 0.7-0.89 0.7-2.08 0-1.09-0.6-1.77-0.61-0.68-1.6-1.11-0.99-0.43-2.14-0.75l-2.69-0.76q-2.55-0.74-4.04-2.1-1.5-1.37-1.5-3.57 0-1.83 0.99-3.2 1.01-1.37 2.69-2.13 1.69-0.76 3.78-0.76 2.11 0 3.75 0.75 1.64 0.75 2.6 2.05 0.97 1.3 1.02 2.95zm8.48 22.5q-0.64 0-1.14-0.11-0.5-0.09-0.69-0.19l0.64-2.22q0.91 0.24 1.62 0.17 0.7-0.06 1.24-0.62 0.56-0.56 1.02-1.8l0.46-1.28-6.05-16.45h2.73l4.52 13.04h0.17l4.52-13.04h2.72l-6.94 18.75q-0.47 1.27-1.16 2.1-0.7 0.84-1.61 1.24-0.91 0.41-2.05 0.41zm17.6-15.98v9.84h-2.52v-16.36h2.43v2.55h0.21q0.58-1.24 1.75-2 1.17-0.76 3.03-0.77 1.66 0.01 2.9 0.69 1.25 0.67 1.94 2.04 0.69 1.37 0.7 3.45v10.4h-2.52v-10.23q0-1.92-1-3-1-1.09-2.75-1.09-1.2 0-2.15 0.53-0.94 0.52-1.48 1.52-0.55 1-0.54 2.43zm21.68 10.18q-2.3 0-3.97-1.08-1.66-1.09-2.55-3-0.9-1.9-0.9-4.36 0-2.49 0.92-4.39 0.93-1.92 2.58-3 1.66-1.08 3.87-1.09 1.73 0 3.12 0.64 1.38 0.64 2.26 1.79 0.89 1.15 1.1 2.69h-2.51q-0.29-1.12-1.28-1.98-0.98-0.88-2.64-0.88-1.47 0-2.58 0.77-1.1 0.76-1.72 2.14-0.6 1.38-0.6 3.23 0 1.9 0.59 3.3 0.61 1.41 1.71 2.19 1.11 0.77 2.6 0.77 0.98 0 1.78-0.34 0.8-0.34 1.35-0.98 0.55-0.64 0.79-1.53h2.51q-0.21 1.45-1.05 2.61-0.83 1.15-2.21 1.83-1.36 0.67-3.17 0.67zm11.94-0.17q-0.79 0-1.35-0.56-0.57-0.57-0.57-1.36 0-0.78 0.57-1.35 0.56-0.56 1.35-0.56 0.79 0 1.35 0.56 0.57 0.57 0.57 1.35 0 0.53-0.27 0.96-0.25 0.44-0.69 0.71-0.43 0.25-0.96 0.25z"/>
	<path fill-rule="evenodd" class="s1" d="m234.32 75.45l-40.81 34.26c-0.47 0.4-1.05 0.58-1.62 0.58-0.68 0-1.39-0.27-1.88-0.83-0.89-1.02-0.79-2.54 0.26-3.41l40.62-34.05c-2.75-3.49-4.39-7.88-4.39-12.63 0-11.48 9.56-20.84 21.34-20.84 11.76 0 21.34 9.34 21.34 20.84 0 11.49-9.56 20.85-21.34 20.85-5.13 0-9.86-1.79-13.52-4.77zm-98.69 84.66c1 0.91 1.03 2.45 0.09 3.41l-29.91 30.55c3.07 3.62 4.92 8.24 4.92 13.3 0 11.48-9.56 20.84-21.34 20.84-11.76 0-21.34-9.34-21.34-20.84 0-11.49 9.56-20.84 21.34-20.84 4.84 0 9.29 1.58 12.87 4.22l29.92-30.54c0.94-0.97 2.49-1 3.45-0.1zm0.58-50.55c-0.6 0-1.22-0.2-1.68-0.64l-29.87-26.98c-3.75 3.14-8.58 5.04-13.88 5.04-11.76 0-21.35-9.34-21.35-20.85 0-11.48 9.57-20.84 21.35-20.84 11.75 0 21.34 9.34 21.34 20.84 0 4.58-1.54 8.82-4.11 12.28l29.88 26.95c1 0.9 1.04 2.44 0.13 3.41-0.49 0.52-1.15 0.79-1.81 0.79zm92.59 47.57l-21.07-7.36c-1.27-0.44-1.96-1.83-1.49-3.08 0.45-1.25 1.88-1.91 3.16-1.45l21.06 7.36c3.49-6.86 10.76-11.61 19.13-11.61 11.76 0 21.34 9.34 21.34 20.85 0 11.48-9.56 20.84-21.34 20.84-11.76 0-21.34-9.34-21.34-20.84q0-2.42 0.55-4.71zm-35.25 37.51c1.92-0.54 3.94-0.86 6.03-0.86 11.77 0 21.34 9.36 21.34 20.87 0 11.5-9.59 20.84-21.34 20.84-11.78 0-21.35-9.36-21.35-20.84 0-7.74 4.35-14.5 10.78-18.1l-14.29-32.8c-0.53-1.23 0.04-2.64 1.3-3.16 1.25-0.52 2.7 0.04 3.24 1.27zm3.04-56.21c0.34 3.02-0.53 5.7-2.6 7.97q-3.14 3.41-7.81 3.41h-45.46c-3.11 0-5.75-1.14-7.82-3.41-2.06-2.27-2.94-4.95-2.6-7.97 1.65-14.12 13.85-24.79 28.44-24.79h9.44c14.57 0 26.79 10.67 28.41 24.79zm-33.12-31.51c-9.63 0-17.47-7.65-17.47-17.05 0-9.41 7.84-17.06 17.47-17.06 9.63 0 17.46 7.65 17.46 17.06 0 9.4-7.83 17.05-17.46 17.05z"/>
	<text id="" style="transform: matrix(1,0,0,1,749,-37)" >
	</text>
	<text id="Editor" style="transform: matrix(1,0,0,1,641,157)" >
		<tspan x="0" y="0" class="t2">E</tspan><tspan  y="0" class="t2">d</tspan><tspan  y="0" class="t2">i</tspan><tspan  y="0" class="t2">t</tspan><tspan  y="0" class="t2">o</tspan><tspan  y="0" class="t2">r
</tspan>
	</text>
</svg>